<svg id="Capa_1" data-name="Capa 1" xmlns="http://www.w3.org/2000/svg" viewBox="0 0 1352.82 274.74"><defs><style>.cls-1{fill:#bdbec0;}.cls-2{fill:#fff;}.cls-3{fill:#f3f3f4;}.cls-4{fill:#fcb246;}.cls-5{fill:#f79725;}.cls-6{fill:none;stroke:#fcb246;stroke-miterlimit:10;stroke-width:0.25px;opacity:0.7;}</style></defs><title>logocorto</title><rect class="cls-1" x="17.52" y="185.67" width="508.07" height="32.94"/><polygon class="cls-2" points="78.45 236.74 78.03 97.05 142.98 76.81 159.89 83.43 159.89 44.81 253.1 12.16 309.3 52.64 309.3 78.64 379.92 62.1 407.25 84.11 407.25 236.74 78.45 236.74"/><polygon class="cls-3" points="143 79.55 159.89 85.02 159.89 107.44 143 103.06 143 79.55"/><polygon class="cls-3" points="253.09 11.77 309.32 51.95 309.22 222.15 253.09 222.15 253.09 11.77"/><polygon class="cls-3" points="379.69 62.1 407.25 86.63 407.25 222.15 379.69 222.15 379.69 62.1"/><polygon class="cls-4" points="17.52 236.74 78.45 236.74 78.45 223.15 142.98 219.77 142.98 248.9 17.52 248.9 17.52 236.74"/><polygon class="cls-4" points="78.34 202.14 78.36 206.66 142.98 201.47 142.98 196.37 78.34 202.14"/><polygon class="cls-4" points="78.28 181.57 78.28 186.09 142.98 177.72 142.98 172.9 78.28 181.57"/><polygon class="cls-4" points="78.03 160.64 78.03 165.16 142.98 154.14 142.98 149.14 78.03 160.64"/><polygon class="cls-4" points="78.03 139.89 78.03 144.4 142.98 130.66 142.98 125.38 78.03 139.89"/><polygon class="cls-4" points="78.03 119.21 78.03 123.73 142.98 107.2 142.98 102.02 78.03 119.21"/><polygon class="cls-4" points="78.03 97.05 78.03 103.06 142.98 83.33 142.98 76.81 78.03 97.05"/><polygon class="cls-4" points="309.13 196.32 309.13 201.46 379.64 197.28 379.64 191.19 309.13 196.32"/><polygon class="cls-4" points="309.16 172.66 309.16 178.18 379.69 170.79 379.69 164.97 309.16 172.66"/><polygon class="cls-4" points="309.22 148.64 309.22 154.16 379.72 145.19 379.72 139.51 309.22 148.64"/><polygon class="cls-4" points="309.22 125.66 309.22 130.9 379.69 119.54 379.69 113.77 309.22 125.66"/><polygon class="cls-4" points="309.17 101.44 309.17 107.44 379.71 93.21 379.71 87.05 309.17 101.44"/><polygon class="cls-4" points="309.22 78.05 309.22 84.06 379.71 67.33 379.71 61.3 309.22 78.05"/><polygon class="cls-4" points="159.9 195.14 159.9 200.2 252.99 192.47 252.99 186.84 159.9 195.14"/><polygon class="cls-4" points="159.9 170.66 159.9 176.18 252.99 163.72 252.99 157.9 159.9 170.66"/><polygon class="cls-4" points="159.9 146.64 159.9 151.16 252.99 135.15 252.99 130.14 159.9 146.64"/><polygon class="cls-4" points="159.9 122.89 159.9 127.4 252.97 107.34 252.97 101.58 159.9 122.89"/><polygon class="cls-4" points="159.9 98.21 159.9 103.73 252.86 79.2 252.86 73.02 159.9 98.21"/><polygon class="cls-4" points="159.9 73.05 159.9 79.06 252.97 51.33 252.97 44.81 159.9 73.05"/><polygon class="cls-4" points="159.9 44.81 159.9 54.53 252.97 22.46 252.97 11.77 159.9 44.81"/><polygon class="cls-5" points="142.98 219.77 159.9 220.6 159.9 248.9 142.98 248.9 142.98 219.77"/><polygon class="cls-5" points="142.98 196.37 159.9 198.17 159.9 203.1 142.98 201.47 142.98 196.37"/><polygon class="cls-5" points="142.98 172.9 159.9 175.6 159.9 180.27 142.98 177.72 142.98 172.9"/><polygon class="cls-5" points="142.98 149.14 159.89 152.94 159.89 157.79 142.98 154.15 142.98 149.14"/><polygon class="cls-5" points="142.98 125.38 159.89 129.95 159.89 135.19 142.98 130.63 142.98 125.38"/><polygon class="cls-5" points="142.98 102.02 159.89 107.36 159.89 112.38 142.98 107.19 142.98 102.02"/><polygon class="cls-5" points="142.98 76.81 159.89 83.43 159.89 89.66 142.98 83.33 142.98 76.81"/><polygon class="cls-5" points="252.81 214.57 309.22 219.53 309.22 248.9 252.81 248.9 252.81 214.57"/><polygon class="cls-5" points="252.99 186.84 309.13 196.19 309.12 201.46 252.99 192.47 252.99 186.84"/><polygon class="cls-5" points="252.99 157.9 309.16 172.66 309.16 178.18 252.99 163.71 252.99 157.9"/><polygon class="cls-5" points="252.99 130.14 309.22 148.64 309.22 154.16 252.99 135.15 252.99 130.14"/><polygon class="cls-5" points="252.97 101.58 309.22 125.66 309.22 130.9 252.97 107.34 252.97 101.58"/><polygon class="cls-5" points="252.86 73.02 309.17 101.47 309.17 107.44 252.86 79.18 252.86 73.02"/><polygon class="cls-5" points="252.97 44.81 309.22 78.05 309.22 84.06 252.97 51.31 252.97 44.81"/><polygon class="cls-5" points="379.64 191.19 407.31 198.6 407.3 203.88 379.64 197.28 379.64 191.19"/><polygon class="cls-5" points="379.69 164.97 407.32 176.13 407.32 181.05 379.69 170.79 379.69 164.97"/><polygon class="cls-5" points="379.72 139.51 407.31 153.72 407.31 159.24 379.72 145.19 379.72 139.51"/><polygon class="cls-5" points="379.69 113.77 407.31 130.78 407.31 135.9 379.69 119.54 379.69 113.77"/><polygon class="cls-5" points="379.71 87.05 407.31 108.25 407.31 113.77 379.71 93.21 379.71 87.05"/><polygon class="cls-5" points="379.71 61.3 407.3 86 407.3 91.28 379.71 67.38 379.71 61.3"/><polygon class="cls-5" points="252.97 11.77 309.36 51.99 309.34 59.91 252.97 22.46 252.97 11.77"/><polygon class="cls-4" points="159.89 219.18 252.81 214.57 252.81 248.9 159.89 248.9 159.89 219.18"/><polygon class="cls-4" points="309.22 219.53 379.67 217.48 379.67 248.89 309.22 248.89 309.22 219.53"/><polygon class="cls-5" points="379.67 217.48 407.3 221.15 407.31 248.89 379.67 248.89 379.67 217.48"/><rect class="cls-4" x="407.04" y="236.74" width="936.78" height="12.15"/><line class="cls-6" x1="159.9" y1="44.81" x2="159.9" y2="248.9"/><line class="cls-6" x1="309.22" y1="51.97" x2="309.22" y2="78.05"/><line class="cls-6" x1="407.17" y1="85.99" x2="407.17" y2="248.9"/><path class="cls-1" d="M626.56,182.27v-4.59H571s-31.74-.52-34.23,20.2h4.72c1.18-9.31,12.06-15.21,29.64-15.74Z"/><path class="cls-1" d="M626.56,219.32v4.19H571s-31.74.52-34.23-20.2h4.72c1.18,9.31,12.06,15.21,29.64,15.74Z"/><path class="cls-1" d="M849.49,182.14v-4.78h-55.6s-31.74-.52-34.23,20.2h4.72c1.18-9.31,12.06-15,29.64-15.54Z"/><path class="cls-1" d="M849.49,219.32v4.19h-55.6s-31.74.52-34.23-20.2h4.72c1.18,9.31,12.06,15.21,29.64,15.74Z"/><path class="cls-1" d="M696.1,177.47v4.68s36.42-2.63,36.8,17.77c0,0,1.63,20.73-36.8,19.35v4.25s40.46,3.54,41.39-23.47C737.49,200,740,175.49,696.1,177.47Z"/><path class="cls-1" d="M690.56,177.47v4.68s-36.42-2.63-36.8,17.77c0,0-1.63,20.73,36.8,19.35v4.25S650.1,227.06,649.17,200C649.17,200,646.67,175.49,690.56,177.47Z"/><polygon class="cls-1" points="869.58 177.35 869.58 182.14 913.1 182.14 913.1 219.35 869.58 219.35 869.58 223.52 961.39 223.52 961.39 219.32 917.41 219.32 917.41 182.14 961.39 182.14 961.39 177.35 869.58 177.35"/><polygon class="cls-1" points="1028.89 223.32 1028.89 182.14 1072.87 182.14 1072.87 177.35 981.06 177.35 981.06 182.14 1024.58 182.14 1024.58 223.35 1028.89 223.32"/><path class="cls-1" d="M924.62,153.87v2.3s-4.12-.53-6.91.71a3.6,3.6,0,0,0,0,6.47,14.73,14.73,0,0,0,6.95,1.17v2.07s-11,1.39-11.2-6.48C913.42,160.1,912.74,153.32,924.62,153.87Z"/><path class="cls-1" d="M925.76,153.87v2.3s4.12-.53,6.91.71a3.6,3.6,0,0,1,0,6.47,14.73,14.73,0,0,1-6.95,1.17v2.07s11,1.39,11.2-6.48C937,160.1,937.64,153.32,925.76,153.87Z"/><path class="cls-1" d="M858.05,153.87v2.3s-4.12-.53-6.91.71a3.6,3.6,0,0,0,0,6.47,14.73,14.73,0,0,0,6.95,1.17v2.07s-11,1.39-11.2-6.48C846.85,160.1,846.18,153.32,858.05,153.87Z"/><path class="cls-1" d="M859.19,153.87v2.3s4.12-.53,6.91.71a3.6,3.6,0,0,1,0,6.47,14.73,14.73,0,0,1-6.95,1.17v2.07s11,1.39,11.2-6.48C870.39,160.1,871.07,153.32,859.19,153.87Z"/><path class="cls-1" d="M1142.53,153.87v2.3s-4.12-.53-6.91.71a3.6,3.6,0,0,0,0,6.47,14.73,14.73,0,0,0,6.95,1.17v2.07s-11,1.39-11.2-6.48C1131.33,160.1,1130.65,153.32,1142.53,153.87Z"/><path class="cls-1" d="M1143.67,153.87v2.3s4.12-.53,6.91.71a3.6,3.6,0,0,1,0,6.47,14.73,14.73,0,0,1-6.95,1.17v2.07s11,1.39,11.2-6.48C1154.87,160.1,1155.55,153.32,1143.67,153.87Z"/><path class="cls-1" d="M910.37,156.27V154H895.83s-8.3-.15-8.95,5.64h2.23c0.37-2,2.34-3.66,7.75-3.39Z"/><path class="cls-1" d="M910.37,164.44v2.28H895.83s-8.3.15-8.95-5.64h2.23c0.37,2,2.34,3.66,7.75,3.39Z"/><path class="cls-1" d="M1100.88,156.27V154h-14.54s-8.3-.15-8.95,5.64h2.23c0.37-2,2.34-3.66,7.75-3.39Z"/><path class="cls-1" d="M1100.88,164.44v2.28h-14.54s-8.3.15-8.95-5.64h2.23c0.37,2,2.34,3.66,7.75,3.39Z"/><path class="cls-1" d="M1302.39,209.07v-3.28h-20.9s-11.93-.21-12.87,8.11h3.21c0.54-2.89,3.37-5.27,11.14-4.88Z"/><path class="cls-1" d="M1302.39,220.82v3.28h-20.9s-11.93.21-12.87-8.11h3.21c0.54,2.89,3.37,5.27,11.14,4.88Z"/><polygon class="cls-1" points="1008.51 156.24 1019.82 156.24 1019.82 153.9 996.22 153.9 996.22 156.24 1007.4 156.24 1008.51 156.24"/><rect class="cls-1" x="1006.81" y="157.27" width="2.86" height="9.45"/><polygon class="cls-1" points="1116.36 156.24 1127.66 156.24 1127.66 153.9 1104.06 153.9 1104.06 156.24 1115.25 156.24 1116.36 156.24"/><rect class="cls-1" x="1114.65" y="157.27" width="2.86" height="9.45"/><rect class="cls-1" x="1170.51" y="220.68" width="3.37" height="3.77"/><rect class="cls-1" x="1306.11" y="220.68" width="3.37" height="3.77"/><rect class="cls-1" x="1335.1" y="220.68" width="3.37" height="3.77"/><rect class="cls-1" x="1127.85" y="220.68" width="3.37" height="3.77"/><path class="cls-1" d="M738.48,159.19h2.39s0.46-2.92,4.91-2.92h15.8V153.9H746.31S739.4,153.74,738.48,159.19Z"/><path class="cls-1" d="M738.48,160.66h2.39s0.46,3.57,4.91,3.57h15.8v2.37H746.31S738.41,166.6,738.48,160.66Z"/><polygon class="cls-1" points="750.03 159.67 750.03 162.08 759.62 162.08 759.62 163.97 761.58 163.97 761.58 159.67 750.03 159.67"/><path class="cls-1" d="M764.9,153.9V166.6h2.38V156.3h14.17c2.57,0.26,4.3,1.36,5.09,3.38H768.29V162h20.59v-2.36s-2-5.78-7.34-5.78H764.9Z"/><polygon class="cls-1" points="781.27 162.67 784.48 162.67 788.01 166.72 784.64 166.72 781.27 162.67"/><path class="cls-1" d="M1022.95,153.9V166.6h2.38V156.3h14.17c2.57,0.26,4.3,1.36,5.09,3.38h-18.25V162h20.59v-2.36s-2-5.78-7.34-5.78h-16.65Z"/><polygon class="cls-1" points="1039.32 162.67 1042.53 162.67 1046.06 166.72 1042.69 166.72 1039.32 162.67"/><path class="cls-1" d="M1157.4,153.9V166.6h2.38V156.3H1174c2.57,0.26,4.3,1.36,5.09,3.38h-18.25V162h20.59v-2.36s-2-5.78-7.34-5.78H1157.4Z"/><polygon class="cls-1" points="1173.77 162.67 1176.98 162.67 1180.51 166.72 1177.14 166.72 1173.77 162.67"/><path class="cls-1" d="M819.24,153.9V166.6h2.38V156.3H835.8c2.57,0.26,4.3,1.36,5.09,3.38H822.64V162h20.59v-2.36s-2-5.78-7.34-5.78H819.24Z"/><path class="cls-1" d="M791.86,153.9h2.34v7.63s0.32,3,9,2.89v2.31s-11.37,1.22-11.37-5.2V153.9Z"/><path class="cls-1" d="M815.22,153.9h-2.34v7.63s-0.32,3-9,2.89v2.31s11.37,1.22,11.37-5.2V153.9Z"/><path class="cls-1" d="M1050.48,153.9h2.34v7.63s0.32,3,9,2.89v2.31s-11.37,1.22-11.37-5.2V153.9Z"/><path class="cls-1" d="M1073.84,153.9h-2.34v7.63s-0.32,3-9,2.89v2.31s11.37,1.22,11.37-5.2V153.9Z"/><polygon class="cls-1" points="940.58 166.68 942.94 166.68 942.94 156.34 961.09 166.72 961.09 164.09 942.94 153.9 940.58 153.9 940.58 166.68"/><rect class="cls-1" x="961.7" y="153.9" width="2.46" height="12.78"/><path class="cls-1" d="M992.39,153.9v2.34H972a3.12,3.12,0,0,0-1.21,3.11h18.74s-0.24,2-1.74,2.23H968.47v-3.48s0.45-3,2.39-4.19h21.54Z"/><path class="cls-1" d="M990.57,159.22h2.35v1.07s-2,5.72-6.36,6.44h-18.1v-2.24h17A6.45,6.45,0,0,0,990.57,159.22Z"/><path class="cls-1" d="M1126.74,206v3.29h-28.61s-2,1.12-1.71,4.37h26.34s-0.34,2.84-2.45,3.13h-27.19v-4.89s0.63-4.16,3.36-5.89h30.26Z"/><path class="cls-1" d="M1124.18,213.53h3.3V215s-2.79,8-8.93,9h-25.43v-3.15h24A9.07,9.07,0,0,0,1124.18,213.53Z"/><polygon class="cls-1" points="1132.38 224.07 1136.73 224.07 1142.49 216.83 1156.36 216.83 1162.43 224.07 1166.85 224.07 1158.31 214.04 1140.44 214.07 1132.38 224.07"/><polygon class="cls-1" points="1146.96 206.04 1149.61 206.04 1149.61 208.54 1145.21 214.5 1140.1 214.5 1146.96 206.04"/><polygon class="cls-1" points="1144.11 213.53 1144.11 215.71 1159.73 215.71 1152.4 206.04 1149.33 206.04 1149.36 208.13 1153.31 213.53 1144.11 213.53"/><polygon class="cls-1" points="1184.48 209.53 1184.48 220.68 1203.56 220.68 1203.56 224.07 1181.19 224.07 1181.19 206.41 1203.56 206.41 1203.56 209.61 1184.48 209.53"/><path class="cls-1" d="M1205.12,224.07s6.73-.16,9.3-5.23a8.23,8.23,0,0,0-.48-8.14,9.67,9.67,0,0,0-7.83-4.3h-11.26v3.17H1205c7.15,0.2,11.09,9.75,0,11.11h-9.7v3.39h9.78Z"/><polygon class="cls-1" points="1254.44 224.07 1220.99 224.07 1220.99 206.41 1254.44 206.41 1254.44 209.31 1224.15 209.31 1224.15 213.52 1245.74 213.52 1245.74 217.07 1224.22 217.07 1224.22 221.08 1254.44 221.08 1254.44 224.07"/><polygon class="cls-1" points="1309.01 205.79 1313.49 205.79 1325.78 221.45 1326.88 221.45 1339.22 205.79 1343.82 205.79 1329.06 224.1 1323.66 224.1 1309.01 205.79"/></svg>