<?xml version="1.0" encoding="utf-8"?>
<!-- Generator: Adobe Illustrator 17.0.0, SVG Export Plug-In . SVG Version: 6.00 Build 0)  -->
<!DOCTYPE svg PUBLIC "-//W3C//DTD SVG 1.1//EN" "http://www.w3.org/Graphics/SVG/1.1/DTD/svg11.dtd">
<svg version="1.1" id="Capa_1" xmlns="http://www.w3.org/2000/svg" xmlns:xlink="http://www.w3.org/1999/xlink" x="0px" y="0px"
	 width="718.046px" height="100px" viewBox="-900.716 316.03 718.046 100" enable-background="new -900.716 316.03 718.046 100"
	 xml:space="preserve">
<g>
	<rect x="-900.716" y="388.279" fill="#BDBEC0" width="378.238" height="13.669"/>
	<polygon fill="#FFFFFF" points="-875.414,409.467 -875.581,351.427 -848.576,343.035 -841.554,345.777 -841.554,329.74 
		-802.833,316.196 -779.484,332.98 -779.484,343.783 -750.152,336.927 -738.769,346.068 -738.769,409.467 	"/>
	<polygon fill="#F3F3F4" points="-848.576,344.156 -841.554,346.441 -841.554,355.748 -848.576,353.961 	"/>
	<polygon fill="#F3F3F4" points="-802.833,316.03 -779.484,332.69 -779.526,403.402 -802.833,403.402 	"/>
	<polygon fill="#F3F3F4" points="-750.235,336.927 -738.769,347.106 -738.769,403.402 -750.235,403.402 	"/>
	<polygon fill="#FCB246" points="-900.716,409.467 -875.414,409.467 -875.414,403.817 -848.576,402.446 -848.576,414.536 
		-900.716,414.536 	"/>
	<polygon fill="#FCB246" points="-875.456,395.092 -875.414,397.003 -848.576,394.843 -848.576,392.724 	"/>
	<polygon fill="#FCB246" points="-875.456,386.575 -875.456,388.445 -848.576,384.955 -848.576,382.961 	"/>
	<polygon fill="#FCB246" points="-875.581,377.85 -875.581,379.762 -848.576,375.15 -848.576,373.073 	"/>
	<polygon fill="#FCB246" points="-875.581,369.25 -875.581,371.12 -848.576,365.428 -848.576,363.226 	"/>
	<polygon fill="#FCB246" points="-875.581,360.65 -875.581,362.52 -848.576,355.665 -848.576,353.504 	"/>
	<polygon fill="#FCB246" points="-875.581,351.427 -875.581,353.961 -848.576,345.735 -848.576,343.035 	"/>
	<polygon fill="#FCB246" points="-779.567,392.683 -779.567,394.843 -750.277,393.098 -750.277,390.564 	"/>
	<polygon fill="#FCB246" points="-779.526,382.878 -779.526,385.163 -750.235,382.088 -750.235,379.679 	"/>
	<polygon fill="#FCB246" points="-779.526,372.865 -779.526,375.192 -750.235,371.452 -750.235,369.084 	"/>
	<polygon fill="#FCB246" points="-779.526,363.351 -779.526,365.511 -750.235,360.775 -750.235,358.407 	"/>
	<polygon fill="#FCB246" points="-779.526,353.255 -779.526,355.748 -750.235,349.848 -750.235,347.272 	"/>
	<polygon fill="#FCB246" points="-779.526,343.533 -779.526,346.068 -750.235,339.088 -750.235,336.595 	"/>
	<polygon fill="#FCB246" points="-841.554,392.184 -841.554,394.303 -802.875,391.104 -802.875,388.736 	"/>
	<polygon fill="#FCB246" points="-841.554,382.047 -841.554,384.332 -802.875,379.138 -802.875,376.729 	"/>
	<polygon fill="#FCB246" points="-841.554,372.034 -841.554,373.945 -802.875,367.256 -802.875,365.179 	"/>
	<polygon fill="#FCB246" points="-841.554,362.188 -841.554,364.057 -802.875,355.706 -802.875,353.338 	"/>
	<polygon fill="#FCB246" points="-841.554,351.926 -841.554,354.211 -802.916,344.032 -802.916,341.456 	"/>
	<polygon fill="#FCB246" points="-841.554,341.456 -841.554,343.99 -802.875,332.44 -802.875,329.74 	"/>
	<polygon fill="#FCB246" points="-841.554,329.74 -841.554,333.77 -802.875,320.475 -802.875,316.03 	"/>
	<polygon fill="#F79725" points="-848.576,402.446 -841.554,402.778 -841.554,414.536 -848.576,414.536 	"/>
	<polygon fill="#F79725" points="-848.576,392.724 -841.554,393.472 -841.554,395.508 -848.576,394.843 	"/>
	<polygon fill="#F79725" points="-848.576,382.961 -841.554,384.082 -841.554,386.035 -848.576,384.955 	"/>
	<polygon fill="#F79725" points="-848.576,373.073 -841.554,374.651 -841.554,376.687 -848.576,375.15 	"/>
	<polygon fill="#F79725" points="-848.576,363.226 -841.554,365.096 -841.554,367.298 -848.576,365.387 	"/>
	<polygon fill="#F79725" points="-848.576,353.504 -841.554,355.748 -841.554,357.825 -848.576,355.665 	"/>
	<polygon fill="#F79725" points="-848.576,343.035 -841.554,345.777 -841.554,348.394 -848.576,345.735 	"/>
	<polygon fill="#F79725" points="-802.958,400.286 -779.526,402.321 -779.526,414.536 -802.958,414.536 	"/>
	<polygon fill="#F79725" points="-802.875,388.736 -779.567,392.641 -779.567,394.843 -802.875,391.104 	"/>
	<polygon fill="#F79725" points="-802.875,376.729 -779.526,382.878 -779.526,385.163 -802.875,379.138 	"/>
	<polygon fill="#F79725" points="-802.875,365.179 -779.526,372.865 -779.526,375.192 -802.875,367.256 	"/>
	<polygon fill="#F79725" points="-802.875,353.338 -779.526,363.351 -779.526,365.511 -802.875,355.706 	"/>
	<polygon fill="#F79725" points="-802.916,341.456 -779.526,353.297 -779.526,355.748 -802.916,344.032 	"/>
	<polygon fill="#F79725" points="-802.875,329.74 -779.526,343.533 -779.526,346.068 -802.875,332.44 	"/>
	<polygon fill="#F79725" points="-750.277,390.564 -738.769,393.638 -738.769,395.84 -750.277,393.098 	"/>
	<polygon fill="#F79725" points="-750.235,379.679 -738.769,384.29 -738.769,386.326 -750.235,382.088 	"/>
	<polygon fill="#F79725" points="-750.235,369.084 -738.769,374.984 -738.769,377.269 -750.235,371.452 	"/>
	<polygon fill="#F79725" points="-750.235,358.407 -738.769,365.47 -738.769,367.589 -750.235,360.775 	"/>
	<polygon fill="#F79725" points="-750.235,347.272 -738.769,356.122 -738.769,358.407 -750.235,349.848 	"/>
	<polygon fill="#F79725" points="-750.235,336.595 -738.769,346.857 -738.769,349.059 -750.235,339.129 	"/>
	<polygon fill="#F79725" points="-802.875,316.03 -779.442,332.731 -779.484,336.013 -802.875,320.475 	"/>
	<polygon fill="#FCB246" points="-841.554,402.197 -802.958,400.286 -802.958,414.536 -841.554,414.536 	"/>
	<polygon fill="#FCB246" points="-779.526,402.321 -750.235,401.49 -750.235,414.536 -779.526,414.536 	"/>
	<polygon fill="#F79725" points="-750.235,401.49 -738.769,403.028 -738.769,414.536 -750.235,414.536 	"/>
	<rect x="-738.893" y="409.467" fill="#FCB246" width="556.389" height="5.027"/>
	
		<line opacity="0.7" fill="none" stroke="#FCB246" stroke-width="0.25" stroke-miterlimit="10" enable-background="new    " x1="-841.554" y1="329.74" x2="-841.554" y2="414.536"/>
	
		<line opacity="0.7" fill="none" stroke="#FCB246" stroke-width="0.25" stroke-miterlimit="10" enable-background="new    " x1="-779.526" y1="332.731" x2="-779.526" y2="343.533"/>
	
		<line opacity="0.7" fill="none" stroke="#FCB246" stroke-width="0.25" stroke-miterlimit="10" enable-background="new    " x1="-738.81" y1="346.857" x2="-738.81" y2="414.536"/>
	<g>
		<path fill="#BDBEC0" d="M-480.683,386.866v-1.911h-23.1c0,0-13.17-0.208-14.209,8.392h1.953c0.499-3.864,5.027-6.315,12.298-6.523
			L-480.683,386.866z"/>
		<path fill="#BDBEC0" d="M-480.683,402.238v1.745h-23.1c0,0-13.17,0.208-14.209-8.392h1.953c0.499,3.864,5.027,6.315,12.298,6.523
			L-480.683,402.238z"/>
	</g>
	<g>
		<path fill="#BDBEC0" d="M-388.034,386.783v-1.994h-23.1c0,0-13.17-0.208-14.209,8.392h1.953c0.499-3.864,5.027-6.232,12.298-6.44
			L-388.034,386.783z"/>
		<path fill="#BDBEC0" d="M-388.034,402.238v1.745h-23.1c0,0-13.17,0.208-14.209-8.392h1.953c0.499,3.864,5.027,6.315,12.298,6.523
			L-388.034,402.238z"/>
	</g>
	<g>
		<path fill="#BDBEC0" d="M-451.766,384.872v1.953c0,0,15.123-1.08,15.289,7.395c0,0,0.665,8.6-15.289,8.06v1.745
			c0,0,16.826,1.454,17.2-9.763C-434.566,394.22-433.528,384.041-451.766,384.872z"/>
		<path fill="#BDBEC0" d="M-454.093,384.872v1.953c0,0-15.123-1.08-15.289,7.395c0,0-0.665,8.6,15.289,8.06v1.745
			c0,0-16.826,1.454-17.2-9.763C-471.252,394.22-472.29,384.041-454.093,384.872z"/>
	</g>
	<polygon fill="#BDBEC0" points="-379.683,384.83 -379.683,386.783 -361.611,386.783 -361.611,402.238 -379.683,402.238 
		-379.683,403.983 -341.544,403.983 -341.544,402.238 -359.824,402.238 -359.824,386.783 -341.544,386.783 -341.544,384.83 	"/>
	<polygon fill="#BDBEC0" points="-313.5,403.9 -313.5,386.783 -295.22,386.783 -295.22,384.83 -333.401,384.83 -333.401,386.783 
		-315.287,386.783 -315.287,403.9 	"/>
	<g>
		<g>
			<path fill="#BDBEC0" d="M-356.833,375.067v0.956c0,0-1.703-0.208-2.867,0.291c-1.122,0.499-1.122,2.119,0,2.701
				c0.582,0.291,1.496,0.499,2.867,0.499v0.872c0,0-4.57,0.582-4.653-2.701C-361.486,377.643-361.777,374.818-356.833,375.067z"/>
		</g>
		<g>
			<path fill="#BDBEC0" d="M-356.376,375.067v0.956c0,0,1.703-0.208,2.867,0.291c1.122,0.499,1.122,2.119,0,2.701
				c-0.582,0.291-1.496,0.499-2.867,0.499v0.872c0,0,4.57,0.582,4.653-2.701C-351.681,377.643-351.432,374.818-356.376,375.067z"/>
		</g>
	</g>
	<g>
		<g>
			<path fill="#BDBEC0" d="M-384.503,375.067v0.956c0,0-1.703-0.208-2.867,0.291c-1.122,0.499-1.122,2.119,0,2.701
				c0.582,0.291,1.496,0.499,2.867,0.499v0.872c0,0-4.57,0.582-4.653-2.701C-389.156,377.643-389.405,374.818-384.503,375.067z"/>
		</g>
		<g>
			<path fill="#BDBEC0" d="M-384.004,375.067v0.956c0,0,1.703-0.208,2.867,0.291c1.122,0.499,1.122,2.119,0,2.701
				c-0.582,0.291-1.496,0.499-2.867,0.499v0.872c0,0,4.57,0.582,4.653-2.701C-379.351,377.643-379.06,374.818-384.004,375.067z"/>
		</g>
	</g>
	<g>
		<g>
			<path fill="#BDBEC0" d="M-266.303,375.067v0.956c0,0-1.703-0.208-2.867,0.291c-1.122,0.499-1.122,2.119,0,2.701
				c0.582,0.291,1.496,0.499,2.867,0.499v0.872c0,0-4.57,0.582-4.653-2.701C-270.957,377.643-271.247,374.818-266.303,375.067z"/>
		</g>
		<g>
			<path fill="#BDBEC0" d="M-265.805,375.067v0.956c0,0,1.703-0.208,2.867,0.291c1.122,0.499,1.122,2.119,0,2.701
				c-0.582,0.291-1.496,0.499-2.867,0.499v0.872c0,0,4.57,0.582,4.653-2.701C-261.152,377.643-260.902,374.818-265.805,375.067z"/>
		</g>
	</g>
	<g>
		<g>
			<path fill="#BDBEC0" d="M-362.733,376.064v-0.956h-6.024c0,0-3.448-0.042-3.698,2.327h0.914c0.166-0.831,0.956-1.537,3.199-1.413
				L-362.733,376.064z"/>
		</g>
		<g>
			<path fill="#BDBEC0" d="M-362.733,379.429v0.956h-6.024c0,0-3.448,0.042-3.698-2.327h0.914c0.166,0.831,0.956,1.537,3.199,1.413
				L-362.733,379.429z"/>
		</g>
	</g>
	<g>
		<g>
			<path fill="#BDBEC0" d="M-283.587,376.064v-0.956h-6.024c0,0-3.448-0.042-3.698,2.327h0.914c0.166-0.831,0.956-1.537,3.199-1.413
				L-283.587,376.064z"/>
		</g>
		<g>
			<path fill="#BDBEC0" d="M-283.587,379.429v0.956h-6.024c0,0-3.448,0.042-3.698-2.327h0.914c0.166,0.831,0.956,1.537,3.199,1.413
				L-283.587,379.429z"/>
		</g>
	</g>
	<g>
		<g>
			<path fill="#BDBEC0" d="M-199.871,398v-1.371h-8.683c0,0-4.944-0.083-5.359,3.365h1.329c0.208-1.205,1.413-2.202,4.612-2.036
				L-199.871,398z"/>
		</g>
		<g>
			<path fill="#BDBEC0" d="M-199.871,402.861v1.371h-8.683c0,0-4.944,0.083-5.359-3.365h1.329c0.208,1.205,1.413,2.202,4.612,2.036
				L-199.871,402.861z"/>
		</g>
	</g>
	<g>
		<polygon fill="#BDBEC0" points="-321.976,376.022 -317.281,376.022 -317.281,375.067 -327.086,375.067 -327.086,376.022 
			-322.433,376.022 		"/>
		<rect x="-322.682" y="376.479" fill="#BDBEC0" width="1.205" height="3.947"/>
	</g>
	<g>
		<polygon fill="#BDBEC0" points="-277.189,376.022 -272.494,376.022 -272.494,375.067 -282.299,375.067 -282.299,376.022 
			-277.646,376.022 		"/>
		<rect x="-277.895" y="376.479" fill="#BDBEC0" width="1.205" height="3.947"/>
	</g>
	<rect x="-254.67" y="402.82" fill="#BDBEC0" width="1.413" height="1.579"/>
	<rect x="-198.334" y="402.82" fill="#BDBEC0" width="1.413" height="1.579"/>
	<rect x="-186.285" y="402.82" fill="#BDBEC0" width="1.413" height="1.579"/>
	<rect x="-272.411" y="402.82" fill="#BDBEC0" width="1.413" height="1.579"/>
	<g>
		<path fill="#BDBEC0" d="M-434.151,377.269h0.997c0,0,0.208-1.205,2.036-1.205c1.828,0,6.564,0,6.564,0v-0.997h-6.357
			C-430.91,375.067-433.777,374.984-434.151,377.269z"/>
		<path fill="#BDBEC0" d="M-434.151,377.892h0.997c0,0,0.208,1.496,2.036,1.496c1.828,0,6.564,0,6.564,0v0.997h-6.357
			C-430.91,380.343-434.192,380.343-434.151,377.892z"/>
		<polygon fill="#BDBEC0" points="-429.373,377.477 -429.373,378.474 -425.384,378.474 -425.384,379.263 -424.554,379.263 
			-424.554,377.477 		"/>
	</g>
	<g>
		<path fill="#BDBEC0" d="M-423.182,375.067v5.276h0.997v-4.279h5.9c1.08,0.125,1.786,0.582,2.119,1.413h-7.603v0.997h8.559v-0.997
			c0,0-0.831-2.41-3.033-2.41C-417.865,375.067-423.182,375.067-423.182,375.067z"/>
		<polygon fill="#BDBEC0" points="-416.369,378.723 -415.039,378.723 -413.585,380.385 -414.998,380.385 		"/>
	</g>
	<g>
		<path fill="#BDBEC0" d="M-315.993,375.067v5.276h0.997v-4.279h5.9c1.08,0.125,1.786,0.582,2.119,1.413h-7.603v0.997h8.559v-0.997
			c0,0-0.831-2.41-3.033-2.41C-310.675,375.067-315.993,375.067-315.993,375.067z"/>
		<polygon fill="#BDBEC0" points="-309.179,378.723 -307.85,378.723 -306.396,380.385 -307.767,380.385 		"/>
	</g>
	<g>
		<path fill="#BDBEC0" d="M-260.113,375.067v5.276h0.997v-4.279h5.9c1.08,0.125,1.787,0.582,2.119,1.413h-7.603v0.997h8.559v-0.997
			c0,0-0.831-2.41-3.033-2.41C-254.795,375.067-260.113,375.067-260.113,375.067z"/>
		<polygon fill="#BDBEC0" points="-253.299,378.723 -251.97,378.723 -250.516,380.385 -251.928,380.385 		"/>
	</g>
	<g>
		<path fill="#BDBEC0" d="M-400.623,375.067v5.276h0.997v-4.279h5.9c1.08,0.125,1.786,0.582,2.119,1.413h-7.603v0.997h8.559v-0.997
			c0,0-0.831-2.41-3.033-2.41C-395.305,375.067-400.623,375.067-400.623,375.067z"/>
	</g>
	<g>
		<path fill="#BDBEC0" d="M-412.007,375.067h0.956v3.158c0,0,0.125,1.246,3.739,1.205v0.956c0,0-4.736,0.499-4.736-2.16
			C-412.007,375.565-412.007,375.067-412.007,375.067z"/>
		<path fill="#BDBEC0" d="M-402.285,375.067h-0.956v3.158c0,0-0.125,1.246-3.739,1.205v0.956c0,0,4.736,0.499,4.736-2.16
			C-402.285,375.565-402.285,375.067-402.285,375.067z"/>
	</g>
	<g>
		<path fill="#BDBEC0" d="M-304.526,375.067h0.956v3.158c0,0,0.125,1.246,3.739,1.205v0.956c0,0-4.736,0.499-4.736-2.16
			C-304.526,375.565-304.526,375.067-304.526,375.067z"/>
		<path fill="#BDBEC0" d="M-294.846,375.067h-0.956v3.158c0,0-0.125,1.246-3.739,1.205v0.956c0,0,4.736,0.499,4.736-2.16
			C-294.846,375.565-294.846,375.067-294.846,375.067z"/>
	</g>
	<g>
		<polygon fill="#BDBEC0" points="-350.186,380.385 -349.23,380.385 -349.23,376.064 -341.669,380.385 -341.669,379.305 
			-349.23,375.067 -350.186,375.067 		"/>
		<rect x="-341.419" y="375.067" fill="#BDBEC0" width="1.039" height="5.318"/>
	</g>
	<g>
		<path fill="#BDBEC0" d="M-328.665,375.067v0.956h-8.475c0,0-0.582,0.332-0.499,1.288h7.769c0,0-0.083,0.831-0.706,0.914h-8.06
			v-1.454c0,0,0.166-1.246,0.997-1.745h8.974V375.067z"/>
		<path fill="#BDBEC0" d="M-329.412,377.269h0.956v0.457c0,0-0.831,2.368-2.659,2.659h-7.52v-0.914h7.063
			C-331.531,379.471-329.869,379.222-329.412,377.269z"/>
	</g>
	<g>
		<path fill="#BDBEC0" d="M-272.868,396.713v1.371h-11.882c0,0-0.831,0.457-0.706,1.828h10.927c0,0-0.125,1.163-0.997,1.288h-11.301
			v-2.036c0,0,0.249-1.745,1.413-2.451C-285.415,396.713-272.868,396.713-272.868,396.713z"/>
		<path fill="#BDBEC0" d="M-273.906,399.829h1.371v0.623c0,0-1.163,3.324-3.698,3.739h-10.553v-1.288h9.971
			C-276.856,402.903-274.53,402.571-273.906,399.829z"/>
	</g>
	<g>
		<polygon fill="#BDBEC0" points="-270.5,404.232 -268.713,404.232 -266.303,401.2 -260.57,401.2 -258.036,404.232 
			-256.208,404.232 -259.739,400.036 -267.176,400.078 		"/>
		<polygon fill="#BDBEC0" points="-264.475,396.713 -263.354,396.713 -263.354,397.751 -265.182,400.244 -267.301,400.244 		"/>
		<polygon fill="#BDBEC0" points="-265.639,399.829 -265.639,400.743 -259.158,400.743 -262.19,396.713 -263.478,396.713 
			-263.478,397.585 -261.816,399.829 		"/>
	</g>
	<g>
		<polygon fill="#BDBEC0" points="-248.854,398.167 -248.854,402.82 -240.96,402.82 -240.96,404.232 -250.225,404.232 
			-250.225,396.879 -240.96,396.879 -240.96,398.208 		"/>
		<path fill="#BDBEC0" d="M-240.295,404.232c0,0,2.784-0.083,3.864-2.16c0.54-1.08,0.457-2.368-0.208-3.365
			c-0.54-0.789-1.496-1.662-3.241-1.786h-4.695v1.329h4.238c2.991,0.083,4.612,4.03,0,4.612h-4.03v1.413h4.072V404.232z"/>
	</g>
	<polygon fill="#BDBEC0" points="-219.813,404.232 -233.69,404.232 -233.69,396.879 -219.813,396.879 -219.813,398.084 
		-232.402,398.084 -232.402,399.829 -223.428,399.829 -223.428,401.324 -232.36,401.324 -232.36,402.986 -219.813,402.986 	"/>
	<polygon fill="#BDBEC0" points="-197.129,396.629 -195.259,396.629 -190.149,403.111 -189.692,403.111 -184.582,396.629 
		-182.671,396.629 -188.82,404.232 -191.063,404.232 	"/>
</g>
</svg>
